<mxfile host="65bd71144e">
    <diagram id="dRc_Ti8yDkFxwuUMB0rD" name="Step1">
        <mxGraphModel dx="1153" dy="790" grid="1" gridSize="10" guides="1" tooltips="1" connect="1" arrows="1" fold="1" page="1" pageScale="1" pageWidth="827" pageHeight="1169" math="0" shadow="0">
            <root>
                <mxCell id="0"/>
                <mxCell id="1" parent="0"/>
                <mxCell id="2" value="" style="shape=actor;whiteSpace=wrap;html=1;" parent="1" vertex="1">
                    <mxGeometry x="320" y="660" width="120" height="120" as="geometry"/>
                </mxCell>
                <mxCell id="3" value="Customer" style="ellipse;shape=cloud;whiteSpace=wrap;html=1;" parent="1" vertex="1">
                    <mxGeometry x="310" y="520" width="130" height="90" as="geometry"/>
                </mxCell>
                <mxCell id="4" value="Companies" style="ellipse;shape=cloud;whiteSpace=wrap;html=1;" parent="1" vertex="1">
                    <mxGeometry x="170" y="180" width="120" height="80" as="geometry"/>
                </mxCell>
                <mxCell id="5" value="Payment" style="ellipse;shape=cloud;whiteSpace=wrap;html=1;" parent="1" vertex="1">
                    <mxGeometry x="480" y="110" width="120" height="80" as="geometry"/>
                </mxCell>
                <mxCell id="6" value="Products" style="ellipse;shape=cloud;whiteSpace=wrap;html=1;" parent="1" vertex="1">
                    <mxGeometry x="130" y="310" width="120" height="80" as="geometry"/>
                </mxCell>
                <mxCell id="8" value="Famazon" style="ellipse;shape=cloud;whiteSpace=wrap;html=1;" parent="1" vertex="1">
                    <mxGeometry x="170" y="470" width="120" height="80" as="geometry"/>
                </mxCell>
                <mxCell id="10" value="Shipping" style="ellipse;shape=cloud;whiteSpace=wrap;html=1;" parent="1" vertex="1">
                    <mxGeometry x="610" y="290" width="120" height="80" as="geometry"/>
                </mxCell>
                <mxCell id="11" value="Delivery" style="ellipse;shape=cloud;whiteSpace=wrap;html=1;" parent="1" vertex="1">
                    <mxGeometry x="580" y="400" width="120" height="80" as="geometry"/>
                </mxCell>
                <mxCell id="12" value="Adress" style="ellipse;shape=cloud;whiteSpace=wrap;html=1;" parent="1" vertex="1">
                    <mxGeometry x="460" y="480" width="120" height="80" as="geometry"/>
                </mxCell>
                <mxCell id="13" value="Purchase" style="ellipse;shape=cloud;whiteSpace=wrap;html=1;" parent="1" vertex="1">
                    <mxGeometry x="600" y="170" width="120" height="80" as="geometry"/>
                </mxCell>
                <mxCell id="u785psCgkzwSrQclSw7B-13" value="cart" style="ellipse;shape=cloud;whiteSpace=wrap;html=1;" parent="1" vertex="1">
                    <mxGeometry x="310" y="100" width="120" height="80" as="geometry"/>
                </mxCell>
            </root>
        </mxGraphModel>
    </diagram>
    <diagram id="xmYm-HFgfnrVGA0D8L9v" name="Step2">
        <mxGraphModel dx="1153" dy="790" grid="1" gridSize="10" guides="1" tooltips="1" connect="1" arrows="1" fold="1" page="1" pageScale="1" pageWidth="827" pageHeight="1169" math="0" shadow="0">
            <root>
                <mxCell id="nDaK88WNhBPRtSF1AywE-0"/>
                <mxCell id="nDaK88WNhBPRtSF1AywE-1" parent="nDaK88WNhBPRtSF1AywE-0"/>
                <mxCell id="HWr3PJp_KFbfZm0r_s_x-2" style="edgeStyle=none;html=1;exitX=0.5;exitY=1;exitDx=0;exitDy=0;entryX=0.5;entryY=0;entryDx=0;entryDy=0;" edge="1" parent="nDaK88WNhBPRtSF1AywE-1" source="JvCUTUHPi_VBJ8pmuMQ2-0" target="HWr3PJp_KFbfZm0r_s_x-0">
                    <mxGeometry relative="1" as="geometry"/>
                </mxCell>
                <mxCell id="JvCUTUHPi_VBJ8pmuMQ2-0" value="User" style="rounded=0;whiteSpace=wrap;html=1;" parent="nDaK88WNhBPRtSF1AywE-1" vertex="1">
                    <mxGeometry x="310" y="160" width="120" height="50" as="geometry"/>
                </mxCell>
                <mxCell id="mi2EQ1boCHXClQn47VF2-2" style="edgeStyle=none;html=1;exitX=0.5;exitY=1;exitDx=0;exitDy=0;entryX=0.5;entryY=0;entryDx=0;entryDy=0;" parent="nDaK88WNhBPRtSF1AywE-1" source="JvCUTUHPi_VBJ8pmuMQ2-13" target="JvCUTUHPi_VBJ8pmuMQ2-0" edge="1">
                    <mxGeometry relative="1" as="geometry"/>
                </mxCell>
                <mxCell id="JvCUTUHPi_VBJ8pmuMQ2-13" value="payment" style="ellipse;whiteSpace=wrap;html=1;" parent="nDaK88WNhBPRtSF1AywE-1" vertex="1">
                    <mxGeometry x="325" y="80" width="90" height="50" as="geometry"/>
                </mxCell>
                <mxCell id="mi2EQ1boCHXClQn47VF2-3" style="edgeStyle=none;html=1;exitX=1;exitY=0.5;exitDx=0;exitDy=0;entryX=0;entryY=0.5;entryDx=0;entryDy=0;" parent="nDaK88WNhBPRtSF1AywE-1" source="JvCUTUHPi_VBJ8pmuMQ2-14" target="JvCUTUHPi_VBJ8pmuMQ2-0" edge="1">
                    <mxGeometry relative="1" as="geometry"/>
                </mxCell>
                <mxCell id="JvCUTUHPi_VBJ8pmuMQ2-14" value="account" style="ellipse;whiteSpace=wrap;html=1;" parent="nDaK88WNhBPRtSF1AywE-1" vertex="1">
                    <mxGeometry x="200" y="160" width="80" height="50" as="geometry"/>
                </mxCell>
                <mxCell id="mi2EQ1boCHXClQn47VF2-6" style="edgeStyle=none;html=1;exitX=0;exitY=0.5;exitDx=0;exitDy=0;entryX=0.85;entryY=-0.06;entryDx=0;entryDy=0;entryPerimeter=0;" parent="nDaK88WNhBPRtSF1AywE-1" source="YgMWRzc600izQSN4gk1b-0" target="JvCUTUHPi_VBJ8pmuMQ2-0" edge="1">
                    <mxGeometry relative="1" as="geometry"/>
                </mxCell>
                <mxCell id="YgMWRzc600izQSN4gk1b-0" value="personal data" style="ellipse;whiteSpace=wrap;html=1;" parent="nDaK88WNhBPRtSF1AywE-1" vertex="1">
                    <mxGeometry x="450" y="100" width="80" height="50" as="geometry"/>
                </mxCell>
                <mxCell id="mi2EQ1boCHXClQn47VF2-7" style="edgeStyle=none;html=1;exitX=0;exitY=0.5;exitDx=0;exitDy=0;entryX=1;entryY=0.5;entryDx=0;entryDy=0;" parent="nDaK88WNhBPRtSF1AywE-1" source="mi2EQ1boCHXClQn47VF2-0" target="JvCUTUHPi_VBJ8pmuMQ2-0" edge="1">
                    <mxGeometry relative="1" as="geometry"/>
                </mxCell>
                <mxCell id="mi2EQ1boCHXClQn47VF2-0" value="information" style="ellipse;whiteSpace=wrap;html=1;" parent="nDaK88WNhBPRtSF1AywE-1" vertex="1">
                    <mxGeometry x="460" y="180" width="80" height="50" as="geometry"/>
                </mxCell>
                <mxCell id="mi2EQ1boCHXClQn47VF2-8" value="Famazon" style="rounded=0;whiteSpace=wrap;html=1;" parent="nDaK88WNhBPRtSF1AywE-1" vertex="1">
                    <mxGeometry x="310" y="290" width="120" height="60" as="geometry"/>
                </mxCell>
                <mxCell id="0r-Zt7Qly55SevAfEgUP-3" style="edgeStyle=none;html=1;exitX=0;exitY=0.5;exitDx=0;exitDy=0;entryX=1.008;entryY=0.65;entryDx=0;entryDy=0;entryPerimeter=0;startArrow=none;startFill=0;endArrow=classic;endFill=1;" parent="nDaK88WNhBPRtSF1AywE-1" target="mi2EQ1boCHXClQn47VF2-8" edge="1">
                    <mxGeometry relative="1" as="geometry">
                        <mxPoint x="490" y="345" as="sourcePoint"/>
                    </mxGeometry>
                </mxCell>
                <mxCell id="0r-Zt7Qly55SevAfEgUP-2" style="edgeStyle=none;html=1;exitX=0;exitY=0;exitDx=0;exitDy=0;entryX=0.75;entryY=1;entryDx=0;entryDy=0;startArrow=none;startFill=0;endArrow=classic;endFill=1;" parent="nDaK88WNhBPRtSF1AywE-1" target="mi2EQ1boCHXClQn47VF2-8" edge="1">
                    <mxGeometry relative="1" as="geometry">
                        <mxPoint x="458.1801948466052" y="427.32233047033606" as="sourcePoint"/>
                    </mxGeometry>
                </mxCell>
                <mxCell id="0r-Zt7Qly55SevAfEgUP-0" style="edgeStyle=none;html=1;exitX=0.5;exitY=0;exitDx=0;exitDy=0;entryX=0.5;entryY=1;entryDx=0;entryDy=0;startArrow=none;startFill=0;endArrow=classic;endFill=1;" parent="nDaK88WNhBPRtSF1AywE-1" target="mi2EQ1boCHXClQn47VF2-8" edge="1">
                    <mxGeometry relative="1" as="geometry">
                        <mxPoint x="360" y="420" as="sourcePoint"/>
                    </mxGeometry>
                </mxCell>
                <mxCell id="ncjfW6jIKwOQZV911ubR-1" style="edgeStyle=none;html=1;exitX=1;exitY=0;exitDx=0;exitDy=0;entryX=0.183;entryY=1.017;entryDx=0;entryDy=0;entryPerimeter=0;startArrow=none;startFill=0;endArrow=classic;endFill=1;" parent="nDaK88WNhBPRtSF1AywE-1" target="mi2EQ1boCHXClQn47VF2-8" edge="1">
                    <mxGeometry relative="1" as="geometry">
                        <mxPoint x="261.8198051533948" y="407.3223304703365" as="sourcePoint"/>
                    </mxGeometry>
                </mxCell>
                <mxCell id="8FmdRg-ALenMMoca_HEG-1" style="edgeStyle=none;html=1;entryX=0;entryY=0.25;entryDx=0;entryDy=0;startArrow=none;startFill=0;endArrow=classic;endFill=1;" parent="nDaK88WNhBPRtSF1AywE-1" target="mi2EQ1boCHXClQn47VF2-8" edge="1">
                    <mxGeometry relative="1" as="geometry">
                        <mxPoint x="255.2941176470547" y="286.76470588235156" as="sourcePoint"/>
                    </mxGeometry>
                </mxCell>
                <mxCell id="OmVhwtAj07ukeKgJALXO-0" value="products" style="rounded=0;whiteSpace=wrap;html=1;" vertex="1" parent="nDaK88WNhBPRtSF1AywE-1">
                    <mxGeometry x="490" y="320" width="100" height="40" as="geometry"/>
                </mxCell>
                <mxCell id="HWr3PJp_KFbfZm0r_s_x-3" style="edgeStyle=none;html=1;exitX=0.5;exitY=1;exitDx=0;exitDy=0;entryX=0.5;entryY=0;entryDx=0;entryDy=0;" edge="1" parent="nDaK88WNhBPRtSF1AywE-1" source="HWr3PJp_KFbfZm0r_s_x-0" target="mi2EQ1boCHXClQn47VF2-8">
                    <mxGeometry relative="1" as="geometry"/>
                </mxCell>
                <mxCell id="HWr3PJp_KFbfZm0r_s_x-0" value="go to&amp;nbsp;" style="rhombus;whiteSpace=wrap;html=1;" vertex="1" parent="nDaK88WNhBPRtSF1AywE-1">
                    <mxGeometry x="340" y="220" width="60" height="60" as="geometry"/>
                </mxCell>
                <mxCell id="HWr3PJp_KFbfZm0r_s_x-4" value="companies" style="rounded=0;whiteSpace=wrap;html=1;" vertex="1" parent="nDaK88WNhBPRtSF1AywE-1">
                    <mxGeometry x="430" y="430" width="90" height="40" as="geometry"/>
                </mxCell>
                <mxCell id="HWr3PJp_KFbfZm0r_s_x-5" value="orders" style="rounded=0;whiteSpace=wrap;html=1;" vertex="1" parent="nDaK88WNhBPRtSF1AywE-1">
                    <mxGeometry x="320" y="415" width="80" height="35" as="geometry"/>
                </mxCell>
                <mxCell id="HWr3PJp_KFbfZm0r_s_x-7" value="location" style="rounded=0;whiteSpace=wrap;html=1;" vertex="1" parent="nDaK88WNhBPRtSF1AywE-1">
                    <mxGeometry x="210" y="400" width="80" height="40" as="geometry"/>
                </mxCell>
                <mxCell id="HWr3PJp_KFbfZm0r_s_x-9" value="cart" style="rounded=0;whiteSpace=wrap;html=1;" vertex="1" parent="nDaK88WNhBPRtSF1AywE-1">
                    <mxGeometry x="165" y="260" width="90" height="40" as="geometry"/>
                </mxCell>
                <mxCell id="ps-ybub36QZkLwtyuZym-1" style="edgeStyle=none;html=1;exitX=0;exitY=1;exitDx=0;exitDy=0;entryX=0.82;entryY=0.025;entryDx=0;entryDy=0;entryPerimeter=0;" edge="1" parent="nDaK88WNhBPRtSF1AywE-1" source="Tn5mTCcy1GMiL2XkTmMt-0" target="OmVhwtAj07ukeKgJALXO-0">
                    <mxGeometry relative="1" as="geometry"/>
                </mxCell>
                <mxCell id="Tn5mTCcy1GMiL2XkTmMt-0" value="name&lt;br&gt;" style="ellipse;whiteSpace=wrap;html=1;aspect=fixed;" vertex="1" parent="nDaK88WNhBPRtSF1AywE-1">
                    <mxGeometry x="580" y="260" width="40" height="40" as="geometry"/>
                </mxCell>
                <mxCell id="ps-ybub36QZkLwtyuZym-2" style="edgeStyle=none;html=1;exitX=0;exitY=0.5;exitDx=0;exitDy=0;entryX=1;entryY=0.25;entryDx=0;entryDy=0;" edge="1" parent="nDaK88WNhBPRtSF1AywE-1" source="flUmi356iwm3BIN13MHG-1" target="OmVhwtAj07ukeKgJALXO-0">
                    <mxGeometry relative="1" as="geometry"/>
                </mxCell>
                <mxCell id="flUmi356iwm3BIN13MHG-1" value="model number" style="ellipse;whiteSpace=wrap;html=1;aspect=fixed;" vertex="1" parent="nDaK88WNhBPRtSF1AywE-1">
                    <mxGeometry x="630" y="300" width="40" height="40" as="geometry"/>
                </mxCell>
                <mxCell id="ps-ybub36QZkLwtyuZym-4" style="edgeStyle=none;html=1;exitX=0;exitY=0;exitDx=0;exitDy=0;entryX=0.9;entryY=1;entryDx=0;entryDy=0;entryPerimeter=0;" edge="1" parent="nDaK88WNhBPRtSF1AywE-1" source="JlLnL_LuKfVNjy3nCQGq-0" target="OmVhwtAj07ukeKgJALXO-0">
                    <mxGeometry relative="1" as="geometry"/>
                </mxCell>
                <mxCell id="JlLnL_LuKfVNjy3nCQGq-0" value="color" style="ellipse;whiteSpace=wrap;html=1;aspect=fixed;" vertex="1" parent="nDaK88WNhBPRtSF1AywE-1">
                    <mxGeometry x="580" y="375" width="40" height="40" as="geometry"/>
                </mxCell>
                <mxCell id="ps-ybub36QZkLwtyuZym-3" style="edgeStyle=none;html=1;exitX=0;exitY=0;exitDx=0;exitDy=0;" edge="1" parent="nDaK88WNhBPRtSF1AywE-1" source="JlLnL_LuKfVNjy3nCQGq-1" target="OmVhwtAj07ukeKgJALXO-0">
                    <mxGeometry relative="1" as="geometry"/>
                </mxCell>
                <mxCell id="JlLnL_LuKfVNjy3nCQGq-1" value="price" style="ellipse;whiteSpace=wrap;html=1;aspect=fixed;" vertex="1" parent="nDaK88WNhBPRtSF1AywE-1">
                    <mxGeometry x="630" y="350" width="40" height="40" as="geometry"/>
                </mxCell>
                <mxCell id="vCdG3cmvxWQV9L3dxfZf-2" style="edgeStyle=none;html=1;exitX=0;exitY=0;exitDx=0;exitDy=0;entryX=0.922;entryY=1.075;entryDx=0;entryDy=0;entryPerimeter=0;" edge="1" parent="nDaK88WNhBPRtSF1AywE-1" source="vCdG3cmvxWQV9L3dxfZf-0" target="HWr3PJp_KFbfZm0r_s_x-4">
                    <mxGeometry relative="1" as="geometry"/>
                </mxCell>
                <mxCell id="vCdG3cmvxWQV9L3dxfZf-0" value="name" style="ellipse;whiteSpace=wrap;html=1;aspect=fixed;" vertex="1" parent="nDaK88WNhBPRtSF1AywE-1">
                    <mxGeometry x="520" y="490" width="40" height="40" as="geometry"/>
                </mxCell>
                <mxCell id="XjWyiD-Jza0-UfUxvT5x-3" style="edgeStyle=none;html=1;exitX=0.5;exitY=0;exitDx=0;exitDy=0;entryX=0.375;entryY=1.075;entryDx=0;entryDy=0;entryPerimeter=0;" edge="1" parent="nDaK88WNhBPRtSF1AywE-1" source="XjWyiD-Jza0-UfUxvT5x-1" target="HWr3PJp_KFbfZm0r_s_x-7">
                    <mxGeometry relative="1" as="geometry"/>
                </mxCell>
                <mxCell id="XjWyiD-Jza0-UfUxvT5x-1" value="adress" style="ellipse;whiteSpace=wrap;html=1;aspect=fixed;" vertex="1" parent="nDaK88WNhBPRtSF1AywE-1">
                    <mxGeometry x="210" y="470" width="40" height="40" as="geometry"/>
                </mxCell>
                <mxCell id="QsP4mIlYabi-EGD-iUhf-4" style="edgeStyle=none;html=1;exitX=0.5;exitY=0;exitDx=0;exitDy=0;entryX=0.5;entryY=1;entryDx=0;entryDy=0;" edge="1" parent="nDaK88WNhBPRtSF1AywE-1" source="0HzOV9wABF78b4lIiLC--0" target="HWr3PJp_KFbfZm0r_s_x-5">
                    <mxGeometry relative="1" as="geometry"/>
                </mxCell>
                <mxCell id="0HzOV9wABF78b4lIiLC--0" value="id, fk_carts, fk_users,&amp;nbsp; fk_adress" style="ellipse;whiteSpace=wrap;html=1;aspect=fixed;" vertex="1" parent="nDaK88WNhBPRtSF1AywE-1">
                    <mxGeometry x="310" y="500" width="60" height="60" as="geometry"/>
                </mxCell>
                <mxCell id="hYsiucdJPF8cA7RWCh_K-1" style="edgeStyle=none;html=1;exitX=1;exitY=0.5;exitDx=0;exitDy=0;entryX=0;entryY=0.5;entryDx=0;entryDy=0;" edge="1" parent="nDaK88WNhBPRtSF1AywE-1" source="mHpJtN56FDCwgvngTHkg-0" target="HWr3PJp_KFbfZm0r_s_x-9">
                    <mxGeometry relative="1" as="geometry"/>
                </mxCell>
                <mxCell id="mHpJtN56FDCwgvngTHkg-0" value="id_int,&lt;br&gt;fk_user" style="ellipse;whiteSpace=wrap;html=1;aspect=fixed;" vertex="1" parent="nDaK88WNhBPRtSF1AywE-1">
                    <mxGeometry x="80" y="255" width="50" height="50" as="geometry"/>
                </mxCell>
            </root>
        </mxGraphModel>
    </diagram>
    <diagram id="_mb6KCLAZiVCAtVtC9Z9" name="Step3">
        <mxGraphModel dx="1153" dy="790" grid="1" gridSize="10" guides="1" tooltips="1" connect="1" arrows="1" fold="1" page="1" pageScale="1" pageWidth="827" pageHeight="1169" math="0" shadow="0">
            <root>
                <mxCell id="_gdBtMtcva3Er1viuM70-0"/>
                <mxCell id="_gdBtMtcva3Er1viuM70-1" parent="_gdBtMtcva3Er1viuM70-0"/>
                <mxCell id="XG5mVd7wuR17hl5mM3Vo-0" value="User" style="swimlane;fontStyle=0;childLayout=stackLayout;horizontal=1;startSize=26;fillColor=none;horizontalStack=0;resizeParent=1;resizeParentMax=0;resizeLast=0;collapsible=1;marginBottom=0;" parent="_gdBtMtcva3Er1viuM70-1" vertex="1">
                    <mxGeometry x="320" y="60" width="160" height="182" as="geometry"/>
                </mxCell>
                <mxCell id="XG5mVd7wuR17hl5mM3Vo-1" value="+ id int" style="text;strokeColor=none;fillColor=none;align=left;verticalAlign=top;spacingLeft=4;spacingRight=4;overflow=hidden;rotatable=0;points=[[0,0.5],[1,0.5]];portConstraint=eastwest;" parent="XG5mVd7wuR17hl5mM3Vo-0" vertex="1">
                    <mxGeometry y="26" width="160" height="26" as="geometry"/>
                </mxCell>
                <mxCell id="XG5mVd7wuR17hl5mM3Vo-2" value="+f_name varchar (30)" style="text;strokeColor=none;fillColor=none;align=left;verticalAlign=top;spacingLeft=4;spacingRight=4;overflow=hidden;rotatable=0;points=[[0,0.5],[1,0.5]];portConstraint=eastwest;" parent="XG5mVd7wuR17hl5mM3Vo-0" vertex="1">
                    <mxGeometry y="52" width="160" height="26" as="geometry"/>
                </mxCell>
                <mxCell id="QRxD8Q7q7HGm8C___GzE-0" value="+l_name varchar (30)" style="text;strokeColor=none;fillColor=none;align=left;verticalAlign=top;spacingLeft=4;spacingRight=4;overflow=hidden;rotatable=0;points=[[0,0.5],[1,0.5]];portConstraint=eastwest;" parent="XG5mVd7wuR17hl5mM3Vo-0" vertex="1">
                    <mxGeometry y="78" width="160" height="26" as="geometry"/>
                </mxCell>
                <mxCell id="QRxD8Q7q7HGm8C___GzE-1" value="+ username varchar (30)" style="text;strokeColor=none;fillColor=none;align=left;verticalAlign=top;spacingLeft=4;spacingRight=4;overflow=hidden;rotatable=0;points=[[0,0.5],[1,0.5]];portConstraint=eastwest;" parent="XG5mVd7wuR17hl5mM3Vo-0" vertex="1">
                    <mxGeometry y="104" width="160" height="26" as="geometry"/>
                </mxCell>
                <mxCell id="QRxD8Q7q7HGm8C___GzE-2" value="+ email varchar (30)" style="text;strokeColor=none;fillColor=none;align=left;verticalAlign=top;spacingLeft=4;spacingRight=4;overflow=hidden;rotatable=0;points=[[0,0.5],[1,0.5]];portConstraint=eastwest;" parent="XG5mVd7wuR17hl5mM3Vo-0" vertex="1">
                    <mxGeometry y="130" width="160" height="26" as="geometry"/>
                </mxCell>
                <mxCell id="34LjgTnKB_xsJUdgsn9G-1" value="+ password varchar (30)" style="text;strokeColor=none;fillColor=none;align=left;verticalAlign=top;spacingLeft=4;spacingRight=4;overflow=hidden;rotatable=0;points=[[0,0.5],[1,0.5]];portConstraint=eastwest;" parent="XG5mVd7wuR17hl5mM3Vo-0" vertex="1">
                    <mxGeometry y="156" width="160" height="26" as="geometry"/>
                </mxCell>
                <mxCell id="JBXUXIXw8sReXx4UT4M7-0" value="payment" style="swimlane;fontStyle=0;childLayout=stackLayout;horizontal=1;startSize=26;fillColor=none;horizontalStack=0;resizeParent=1;resizeParentMax=0;resizeLast=0;collapsible=1;marginBottom=0;" parent="_gdBtMtcva3Er1viuM70-1" vertex="1">
                    <mxGeometry x="670" y="62" width="150" height="130" as="geometry"/>
                </mxCell>
                <mxCell id="JBXUXIXw8sReXx4UT4M7-1" value="+ id int" style="text;strokeColor=none;fillColor=none;align=left;verticalAlign=top;spacingLeft=4;spacingRight=4;overflow=hidden;rotatable=0;points=[[0,0.5],[1,0.5]];portConstraint=eastwest;" parent="JBXUXIXw8sReXx4UT4M7-0" vertex="1">
                    <mxGeometry y="26" width="150" height="26" as="geometry"/>
                </mxCell>
                <mxCell id="xG-xgUPQiXrutbsS-tcJ-0" value="+ creditcard varchar (30)" style="text;strokeColor=none;fillColor=none;align=left;verticalAlign=top;spacingLeft=4;spacingRight=4;overflow=hidden;rotatable=0;points=[[0,0.5],[1,0.5]];portConstraint=eastwest;" parent="JBXUXIXw8sReXx4UT4M7-0" vertex="1">
                    <mxGeometry y="52" width="150" height="26" as="geometry"/>
                </mxCell>
                <mxCell id="JBXUXIXw8sReXx4UT4M7-2" value="+ paypal varchar " style="text;strokeColor=none;fillColor=none;align=left;verticalAlign=top;spacingLeft=4;spacingRight=4;overflow=hidden;rotatable=0;points=[[0,0.5],[1,0.5]];portConstraint=eastwest;" parent="JBXUXIXw8sReXx4UT4M7-0" vertex="1">
                    <mxGeometry y="78" width="150" height="26" as="geometry"/>
                </mxCell>
                <mxCell id="JBXUXIXw8sReXx4UT4M7-3" value="+ klarna varchar" style="text;strokeColor=none;fillColor=none;align=left;verticalAlign=top;spacingLeft=4;spacingRight=4;overflow=hidden;rotatable=0;points=[[0,0.5],[1,0.5]];portConstraint=eastwest;" parent="JBXUXIXw8sReXx4UT4M7-0" vertex="1">
                    <mxGeometry y="104" width="150" height="26" as="geometry"/>
                </mxCell>
                <mxCell id="6z6c3GydMrYya5UUCxdO-0" value="products" style="swimlane;fontStyle=0;childLayout=stackLayout;horizontal=1;startSize=26;fillColor=none;horizontalStack=0;resizeParent=1;resizeParentMax=0;resizeLast=0;collapsible=1;marginBottom=0;" parent="_gdBtMtcva3Er1viuM70-1" vertex="1">
                    <mxGeometry x="60" y="280" width="170" height="182" as="geometry"/>
                </mxCell>
                <mxCell id="6z6c3GydMrYya5UUCxdO-1" value="+id int" style="text;strokeColor=none;fillColor=none;align=left;verticalAlign=top;spacingLeft=4;spacingRight=4;overflow=hidden;rotatable=0;points=[[0,0.5],[1,0.5]];portConstraint=eastwest;" parent="6z6c3GydMrYya5UUCxdO-0" vertex="1">
                    <mxGeometry y="26" width="170" height="26" as="geometry"/>
                </mxCell>
                <mxCell id="6z6c3GydMrYya5UUCxdO-2" value="+ name varchar (30)" style="text;strokeColor=none;fillColor=none;align=left;verticalAlign=top;spacingLeft=4;spacingRight=4;overflow=hidden;rotatable=0;points=[[0,0.5],[1,0.5]];portConstraint=eastwest;" parent="6z6c3GydMrYya5UUCxdO-0" vertex="1">
                    <mxGeometry y="52" width="170" height="26" as="geometry"/>
                </mxCell>
                <mxCell id="6z6c3GydMrYya5UUCxdO-3" value="+ model number varchar (30)" style="text;strokeColor=none;fillColor=none;align=left;verticalAlign=top;spacingLeft=4;spacingRight=4;overflow=hidden;rotatable=0;points=[[0,0.5],[1,0.5]];portConstraint=eastwest;" parent="6z6c3GydMrYya5UUCxdO-0" vertex="1">
                    <mxGeometry y="78" width="170" height="26" as="geometry"/>
                </mxCell>
                <mxCell id="I0x0RrauD_dubwP1C-i--8" value="+ price float" style="text;strokeColor=none;fillColor=none;align=left;verticalAlign=top;spacingLeft=4;spacingRight=4;overflow=hidden;rotatable=0;points=[[0,0.5],[1,0.5]];portConstraint=eastwest;" parent="6z6c3GydMrYya5UUCxdO-0" vertex="1">
                    <mxGeometry y="104" width="170" height="26" as="geometry"/>
                </mxCell>
                <mxCell id="34LjgTnKB_xsJUdgsn9G-5" value="+ color varchar (30)&#10;" style="text;strokeColor=none;fillColor=none;align=left;verticalAlign=top;spacingLeft=4;spacingRight=4;overflow=hidden;rotatable=0;points=[[0,0.5],[1,0.5]];portConstraint=eastwest;" parent="6z6c3GydMrYya5UUCxdO-0" vertex="1">
                    <mxGeometry y="130" width="170" height="26" as="geometry"/>
                </mxCell>
                <mxCell id="34LjgTnKB_xsJUdgsn9G-14" value="+ fk_companies&#10;" style="text;strokeColor=none;fillColor=none;align=left;verticalAlign=top;spacingLeft=4;spacingRight=4;overflow=hidden;rotatable=0;points=[[0,0.5],[1,0.5]];portConstraint=eastwest;" parent="6z6c3GydMrYya5UUCxdO-0" vertex="1">
                    <mxGeometry y="156" width="170" height="26" as="geometry"/>
                </mxCell>
                <mxCell id="n7zD277C_30q_jJEc3eK-1" value="adress" style="swimlane;fontStyle=0;childLayout=stackLayout;horizontal=1;startSize=26;fillColor=none;horizontalStack=0;resizeParent=1;resizeParentMax=0;resizeLast=0;collapsible=1;marginBottom=0;" parent="_gdBtMtcva3Er1viuM70-1" vertex="1">
                    <mxGeometry x="570" y="394" width="160" height="182" as="geometry"/>
                </mxCell>
                <mxCell id="n7zD277C_30q_jJEc3eK-2" value="+ id int" style="text;strokeColor=none;fillColor=none;align=left;verticalAlign=top;spacingLeft=4;spacingRight=4;overflow=hidden;rotatable=0;points=[[0,0.5],[1,0.5]];portConstraint=eastwest;" parent="n7zD277C_30q_jJEc3eK-1" vertex="1">
                    <mxGeometry y="26" width="160" height="26" as="geometry"/>
                </mxCell>
                <mxCell id="n7zD277C_30q_jJEc3eK-3" value="+ streetname varchar (30)" style="text;strokeColor=none;fillColor=none;align=left;verticalAlign=top;spacingLeft=4;spacingRight=4;overflow=hidden;rotatable=0;points=[[0,0.5],[1,0.5]];portConstraint=eastwest;" parent="n7zD277C_30q_jJEc3eK-1" vertex="1">
                    <mxGeometry y="52" width="160" height="26" as="geometry"/>
                </mxCell>
                <mxCell id="n7zD277C_30q_jJEc3eK-4" value="+postal code varchar (10)&#10;" style="text;strokeColor=none;fillColor=none;align=left;verticalAlign=top;spacingLeft=4;spacingRight=4;overflow=hidden;rotatable=0;points=[[0,0.5],[1,0.5]];portConstraint=eastwest;" parent="n7zD277C_30q_jJEc3eK-1" vertex="1">
                    <mxGeometry y="78" width="160" height="26" as="geometry"/>
                </mxCell>
                <mxCell id="n7zD277C_30q_jJEc3eK-5" value="+city varchar (30) " style="text;strokeColor=none;fillColor=none;align=left;verticalAlign=top;spacingLeft=4;spacingRight=4;overflow=hidden;rotatable=0;points=[[0,0.5],[1,0.5]];portConstraint=eastwest;" parent="n7zD277C_30q_jJEc3eK-1" vertex="1">
                    <mxGeometry y="104" width="160" height="26" as="geometry"/>
                </mxCell>
                <mxCell id="n7zD277C_30q_jJEc3eK-6" value="+ country varchar (30) " style="text;strokeColor=none;fillColor=none;align=left;verticalAlign=top;spacingLeft=4;spacingRight=4;overflow=hidden;rotatable=0;points=[[0,0.5],[1,0.5]];portConstraint=eastwest;" parent="n7zD277C_30q_jJEc3eK-1" vertex="1">
                    <mxGeometry y="130" width="160" height="26" as="geometry"/>
                </mxCell>
                <mxCell id="n7zD277C_30q_jJEc3eK-7" value="+ country varchar (30) " style="text;strokeColor=none;fillColor=none;align=left;verticalAlign=top;spacingLeft=4;spacingRight=4;overflow=hidden;rotatable=0;points=[[0,0.5],[1,0.5]];portConstraint=eastwest;" parent="n7zD277C_30q_jJEc3eK-1" vertex="1">
                    <mxGeometry y="156" width="160" height="26" as="geometry"/>
                </mxCell>
                <mxCell id="34LjgTnKB_xsJUdgsn9G-6" value="product type" style="swimlane;fontStyle=0;childLayout=stackLayout;horizontal=1;startSize=26;fillColor=none;horizontalStack=0;resizeParent=1;resizeParentMax=0;resizeLast=0;collapsible=1;marginBottom=0;" parent="_gdBtMtcva3Er1viuM70-1" vertex="1">
                    <mxGeometry x="60" y="510" width="170" height="104" as="geometry"/>
                </mxCell>
                <mxCell id="34LjgTnKB_xsJUdgsn9G-7" value="+ id int " style="text;strokeColor=none;fillColor=none;align=left;verticalAlign=top;spacingLeft=4;spacingRight=4;overflow=hidden;rotatable=0;points=[[0,0.5],[1,0.5]];portConstraint=eastwest;" parent="34LjgTnKB_xsJUdgsn9G-6" vertex="1">
                    <mxGeometry y="26" width="170" height="26" as="geometry"/>
                </mxCell>
                <mxCell id="34LjgTnKB_xsJUdgsn9G-8" value="+ fk_products" style="text;strokeColor=none;fillColor=none;align=left;verticalAlign=top;spacingLeft=4;spacingRight=4;overflow=hidden;rotatable=0;points=[[0,0.5],[1,0.5]];portConstraint=eastwest;" parent="34LjgTnKB_xsJUdgsn9G-6" vertex="1">
                    <mxGeometry y="52" width="170" height="26" as="geometry"/>
                </mxCell>
                <mxCell id="34LjgTnKB_xsJUdgsn9G-9" value="+ type varchar (30)" style="text;strokeColor=none;fillColor=none;align=left;verticalAlign=top;spacingLeft=4;spacingRight=4;overflow=hidden;rotatable=0;points=[[0,0.5],[1,0.5]];portConstraint=eastwest;" parent="34LjgTnKB_xsJUdgsn9G-6" vertex="1">
                    <mxGeometry y="78" width="170" height="26" as="geometry"/>
                </mxCell>
                <mxCell id="34LjgTnKB_xsJUdgsn9G-10" value="companies" style="swimlane;fontStyle=0;childLayout=stackLayout;horizontal=1;startSize=26;fillColor=none;horizontalStack=0;resizeParent=1;resizeParentMax=0;resizeLast=0;collapsible=1;marginBottom=0;" parent="_gdBtMtcva3Er1viuM70-1" vertex="1">
                    <mxGeometry x="675" y="290" width="140" height="78" as="geometry"/>
                </mxCell>
                <mxCell id="34LjgTnKB_xsJUdgsn9G-11" value="+ id int" style="text;strokeColor=none;fillColor=none;align=left;verticalAlign=top;spacingLeft=4;spacingRight=4;overflow=hidden;rotatable=0;points=[[0,0.5],[1,0.5]];portConstraint=eastwest;" parent="34LjgTnKB_xsJUdgsn9G-10" vertex="1">
                    <mxGeometry y="26" width="140" height="26" as="geometry"/>
                </mxCell>
                <mxCell id="34LjgTnKB_xsJUdgsn9G-12" value="+ name varchar (30)" style="text;strokeColor=none;fillColor=none;align=left;verticalAlign=top;spacingLeft=4;spacingRight=4;overflow=hidden;rotatable=0;points=[[0,0.5],[1,0.5]];portConstraint=eastwest;" parent="34LjgTnKB_xsJUdgsn9G-10" vertex="1">
                    <mxGeometry y="52" width="140" height="26" as="geometry"/>
                </mxCell>
                <mxCell id="btAuZEqV7LtW5HdOkQuj-0" value="user_adresses" style="swimlane;fontStyle=0;childLayout=stackLayout;horizontal=1;startSize=26;fillColor=none;horizontalStack=0;resizeParent=1;resizeParentMax=0;resizeLast=0;collapsible=1;marginBottom=0;" parent="_gdBtMtcva3Er1viuM70-1" vertex="1">
                    <mxGeometry x="320" y="290" width="160" height="104" as="geometry"/>
                </mxCell>
                <mxCell id="btAuZEqV7LtW5HdOkQuj-1" value="+id int" style="text;strokeColor=none;fillColor=none;align=left;verticalAlign=top;spacingLeft=4;spacingRight=4;overflow=hidden;rotatable=0;points=[[0,0.5],[1,0.5]];portConstraint=eastwest;" parent="btAuZEqV7LtW5HdOkQuj-0" vertex="1">
                    <mxGeometry y="26" width="160" height="26" as="geometry"/>
                </mxCell>
                <mxCell id="btAuZEqV7LtW5HdOkQuj-2" value="+fk_user" style="text;strokeColor=none;fillColor=none;align=left;verticalAlign=top;spacingLeft=4;spacingRight=4;overflow=hidden;rotatable=0;points=[[0,0.5],[1,0.5]];portConstraint=eastwest;" parent="btAuZEqV7LtW5HdOkQuj-0" vertex="1">
                    <mxGeometry y="52" width="160" height="26" as="geometry"/>
                </mxCell>
                <mxCell id="btAuZEqV7LtW5HdOkQuj-3" value="+fk_adress&#10;" style="text;strokeColor=none;fillColor=none;align=left;verticalAlign=top;spacingLeft=4;spacingRight=4;overflow=hidden;rotatable=0;points=[[0,0.5],[1,0.5]];portConstraint=eastwest;" parent="btAuZEqV7LtW5HdOkQuj-0" vertex="1">
                    <mxGeometry y="78" width="160" height="26" as="geometry"/>
                </mxCell>
                <mxCell id="8J_DrpOFzj1eCJbtzyYa-0" value="carts" style="swimlane;fontStyle=0;childLayout=stackLayout;horizontal=1;startSize=26;fillColor=none;horizontalStack=0;resizeParent=1;resizeParentMax=0;resizeLast=0;collapsible=1;marginBottom=0;" parent="_gdBtMtcva3Er1viuM70-1" vertex="1">
                    <mxGeometry x="510" y="62" width="140" height="78" as="geometry"/>
                </mxCell>
                <mxCell id="8J_DrpOFzj1eCJbtzyYa-1" value="+id int" style="text;strokeColor=none;fillColor=none;align=left;verticalAlign=top;spacingLeft=4;spacingRight=4;overflow=hidden;rotatable=0;points=[[0,0.5],[1,0.5]];portConstraint=eastwest;" parent="8J_DrpOFzj1eCJbtzyYa-0" vertex="1">
                    <mxGeometry y="26" width="140" height="26" as="geometry"/>
                </mxCell>
                <mxCell id="8J_DrpOFzj1eCJbtzyYa-2" value="+fk_user" style="text;strokeColor=none;fillColor=none;align=left;verticalAlign=top;spacingLeft=4;spacingRight=4;overflow=hidden;rotatable=0;points=[[0,0.5],[1,0.5]];portConstraint=eastwest;" parent="8J_DrpOFzj1eCJbtzyYa-0" vertex="1">
                    <mxGeometry y="52" width="140" height="26" as="geometry"/>
                </mxCell>
                <mxCell id="I0x0RrauD_dubwP1C-i--0" value="cart_products" style="swimlane;fontStyle=0;childLayout=stackLayout;horizontal=1;startSize=26;fillColor=none;horizontalStack=0;resizeParent=1;resizeParentMax=0;resizeLast=0;collapsible=1;marginBottom=0;" parent="_gdBtMtcva3Er1viuM70-1" vertex="1">
                    <mxGeometry x="550" y="630" width="140" height="130" as="geometry"/>
                </mxCell>
                <mxCell id="I0x0RrauD_dubwP1C-i--1" value="+ id int " style="text;strokeColor=none;fillColor=none;align=left;verticalAlign=top;spacingLeft=4;spacingRight=4;overflow=hidden;rotatable=0;points=[[0,0.5],[1,0.5]];portConstraint=eastwest;" parent="I0x0RrauD_dubwP1C-i--0" vertex="1">
                    <mxGeometry y="26" width="140" height="26" as="geometry"/>
                </mxCell>
                <mxCell id="I0x0RrauD_dubwP1C-i--2" value="+ fk_carts" style="text;strokeColor=none;fillColor=none;align=left;verticalAlign=top;spacingLeft=4;spacingRight=4;overflow=hidden;rotatable=0;points=[[0,0.5],[1,0.5]];portConstraint=eastwest;" parent="I0x0RrauD_dubwP1C-i--0" vertex="1">
                    <mxGeometry y="52" width="140" height="26" as="geometry"/>
                </mxCell>
                <mxCell id="I0x0RrauD_dubwP1C-i--4" value="+ fk_products" style="text;strokeColor=none;fillColor=none;align=left;verticalAlign=top;spacingLeft=4;spacingRight=4;overflow=hidden;rotatable=0;points=[[0,0.5],[1,0.5]];portConstraint=eastwest;" parent="I0x0RrauD_dubwP1C-i--0" vertex="1">
                    <mxGeometry y="78" width="140" height="26" as="geometry"/>
                </mxCell>
                <mxCell id="I0x0RrauD_dubwP1C-i--5" value="+ quantity int" style="text;strokeColor=none;fillColor=none;align=left;verticalAlign=top;spacingLeft=4;spacingRight=4;overflow=hidden;rotatable=0;points=[[0,0.5],[1,0.5]];portConstraint=eastwest;" parent="I0x0RrauD_dubwP1C-i--0" vertex="1">
                    <mxGeometry y="104" width="140" height="26" as="geometry"/>
                </mxCell>
                <mxCell id="I0x0RrauD_dubwP1C-i--10" value="orders" style="swimlane;fontStyle=0;childLayout=stackLayout;horizontal=1;startSize=26;fillColor=none;horizontalStack=0;resizeParent=1;resizeParentMax=0;resizeLast=0;collapsible=1;marginBottom=0;" parent="_gdBtMtcva3Er1viuM70-1" vertex="1">
                    <mxGeometry x="160" y="700" width="140" height="130" as="geometry"/>
                </mxCell>
                <mxCell id="I0x0RrauD_dubwP1C-i--11" value="+id int" style="text;strokeColor=none;fillColor=none;align=left;verticalAlign=top;spacingLeft=4;spacingRight=4;overflow=hidden;rotatable=0;points=[[0,0.5],[1,0.5]];portConstraint=eastwest;" parent="I0x0RrauD_dubwP1C-i--10" vertex="1">
                    <mxGeometry y="26" width="140" height="26" as="geometry"/>
                </mxCell>
                <mxCell id="I0x0RrauD_dubwP1C-i--13" value="+ fk_carts" style="text;strokeColor=none;fillColor=none;align=left;verticalAlign=top;spacingLeft=4;spacingRight=4;overflow=hidden;rotatable=0;points=[[0,0.5],[1,0.5]];portConstraint=eastwest;" parent="I0x0RrauD_dubwP1C-i--10" vertex="1">
                    <mxGeometry y="52" width="140" height="26" as="geometry"/>
                </mxCell>
                <mxCell id="I0x0RrauD_dubwP1C-i--14" value="+ fk_users" style="text;strokeColor=none;fillColor=none;align=left;verticalAlign=top;spacingLeft=4;spacingRight=4;overflow=hidden;rotatable=0;points=[[0,0.5],[1,0.5]];portConstraint=eastwest;" parent="I0x0RrauD_dubwP1C-i--10" vertex="1">
                    <mxGeometry y="78" width="140" height="26" as="geometry"/>
                </mxCell>
                <mxCell id="I0x0RrauD_dubwP1C-i--15" value="+ fk_adress" style="text;strokeColor=none;fillColor=none;align=left;verticalAlign=top;spacingLeft=4;spacingRight=4;overflow=hidden;rotatable=0;points=[[0,0.5],[1,0.5]];portConstraint=eastwest;" parent="I0x0RrauD_dubwP1C-i--10" vertex="1">
                    <mxGeometry y="104" width="140" height="26" as="geometry"/>
                </mxCell>
                <mxCell id="hzCfqHyKZoOe3_u3o-hk-2" style="edgeStyle=orthogonalEdgeStyle;html=1;exitX=0;exitY=0.5;exitDx=0;exitDy=0;entryX=0;entryY=0.5;entryDx=0;entryDy=0;" edge="1" parent="_gdBtMtcva3Er1viuM70-1" source="34LjgTnKB_xsJUdgsn9G-8" target="6z6c3GydMrYya5UUCxdO-1">
                    <mxGeometry relative="1" as="geometry">
                        <Array as="points">
                            <mxPoint x="30" y="575"/>
                            <mxPoint x="30" y="319"/>
                        </Array>
                    </mxGeometry>
                </mxCell>
                <mxCell id="hzCfqHyKZoOe3_u3o-hk-3" style="edgeStyle=orthogonalEdgeStyle;html=1;exitX=1;exitY=0.5;exitDx=0;exitDy=0;entryX=0;entryY=0.5;entryDx=0;entryDy=0;" edge="1" parent="_gdBtMtcva3Er1viuM70-1" source="6z6c3GydMrYya5UUCxdO-2" target="XG5mVd7wuR17hl5mM3Vo-2">
                    <mxGeometry relative="1" as="geometry"/>
                </mxCell>
                <mxCell id="hzCfqHyKZoOe3_u3o-hk-4" style="edgeStyle=orthogonalEdgeStyle;html=1;exitX=1;exitY=0.5;exitDx=0;exitDy=0;entryX=0;entryY=0.5;entryDx=0;entryDy=0;" edge="1" parent="_gdBtMtcva3Er1viuM70-1" source="34LjgTnKB_xsJUdgsn9G-14" target="34LjgTnKB_xsJUdgsn9G-11">
                    <mxGeometry relative="1" as="geometry">
                        <Array as="points">
                            <mxPoint x="230" y="430"/>
                            <mxPoint x="453" y="430"/>
                            <mxPoint x="453" y="329"/>
                        </Array>
                    </mxGeometry>
                </mxCell>
                <mxCell id="hzCfqHyKZoOe3_u3o-hk-5" style="edgeStyle=orthogonalEdgeStyle;html=1;exitX=0;exitY=0.5;exitDx=0;exitDy=0;entryX=1;entryY=0.5;entryDx=0;entryDy=0;" edge="1" parent="_gdBtMtcva3Er1viuM70-1" source="I0x0RrauD_dubwP1C-i--4" target="6z6c3GydMrYya5UUCxdO-1">
                    <mxGeometry relative="1" as="geometry">
                        <Array as="points">
                            <mxPoint x="310" y="721"/>
                            <mxPoint x="310" y="319"/>
                        </Array>
                    </mxGeometry>
                </mxCell>
                <mxCell id="hzCfqHyKZoOe3_u3o-hk-6" style="edgeStyle=orthogonalEdgeStyle;html=1;exitX=0;exitY=0.5;exitDx=0;exitDy=0;entryX=1;entryY=0.5;entryDx=0;entryDy=0;" edge="1" parent="_gdBtMtcva3Er1viuM70-1" source="8J_DrpOFzj1eCJbtzyYa-1" target="I0x0RrauD_dubwP1C-i--11">
                    <mxGeometry relative="1" as="geometry">
                        <Array as="points">
                            <mxPoint x="500" y="101"/>
                            <mxPoint x="500" y="739"/>
                        </Array>
                    </mxGeometry>
                </mxCell>
                <mxCell id="hzCfqHyKZoOe3_u3o-hk-7" style="edgeStyle=orthogonalEdgeStyle;html=1;exitX=0;exitY=0.5;exitDx=0;exitDy=0;entryX=1;entryY=0.5;entryDx=0;entryDy=0;" edge="1" parent="_gdBtMtcva3Er1viuM70-1" source="8J_DrpOFzj1eCJbtzyYa-2" target="XG5mVd7wuR17hl5mM3Vo-1">
                    <mxGeometry relative="1" as="geometry"/>
                </mxCell>
                <mxCell id="hzCfqHyKZoOe3_u3o-hk-8" style="edgeStyle=orthogonalEdgeStyle;html=1;exitX=0;exitY=0.5;exitDx=0;exitDy=0;entryX=1;entryY=0.5;entryDx=0;entryDy=0;" edge="1" parent="_gdBtMtcva3Er1viuM70-1" source="I0x0RrauD_dubwP1C-i--2" target="8J_DrpOFzj1eCJbtzyYa-1">
                    <mxGeometry relative="1" as="geometry">
                        <Array as="points">
                            <mxPoint x="540" y="695"/>
                            <mxPoint x="540" y="200"/>
                            <mxPoint x="660" y="200"/>
                            <mxPoint x="660" y="101"/>
                        </Array>
                    </mxGeometry>
                </mxCell>
                <mxCell id="hzCfqHyKZoOe3_u3o-hk-9" style="edgeStyle=orthogonalEdgeStyle;html=1;exitX=0;exitY=0.5;exitDx=0;exitDy=0;entryX=0.006;entryY=0.269;entryDx=0;entryDy=0;entryPerimeter=0;" edge="1" parent="_gdBtMtcva3Er1viuM70-1" source="btAuZEqV7LtW5HdOkQuj-2" target="XG5mVd7wuR17hl5mM3Vo-1">
                    <mxGeometry relative="1" as="geometry">
                        <Array as="points">
                            <mxPoint x="300" y="355"/>
                            <mxPoint x="300" y="93"/>
                        </Array>
                    </mxGeometry>
                </mxCell>
                <mxCell id="hzCfqHyKZoOe3_u3o-hk-10" style="edgeStyle=orthogonalEdgeStyle;html=1;exitX=1;exitY=0.5;exitDx=0;exitDy=0;entryX=0;entryY=0.5;entryDx=0;entryDy=0;" edge="1" parent="_gdBtMtcva3Er1viuM70-1" source="btAuZEqV7LtW5HdOkQuj-3" target="n7zD277C_30q_jJEc3eK-2">
                    <mxGeometry relative="1" as="geometry"/>
                </mxCell>
            </root>
        </mxGraphModel>
    </diagram>
    <diagram id="ePpa9EOQrcgFgIebJRoX" name="Step4">
        <mxGraphModel dx="1980" dy="790" grid="1" gridSize="10" guides="1" tooltips="1" connect="1" arrows="1" fold="1" page="1" pageScale="1" pageWidth="827" pageHeight="1169" math="0" shadow="0">
            <root>
                <mxCell id="Wk-cKhRexR9t8VBScbrx-0"/>
                <mxCell id="Wk-cKhRexR9t8VBScbrx-1" parent="Wk-cKhRexR9t8VBScbrx-0"/>
                <mxCell id="PzXle0SbXXrDbyuc-Smm-0" value="User" style="swimlane;fontStyle=0;childLayout=stackLayout;horizontal=1;startSize=26;fillColor=none;horizontalStack=0;resizeParent=1;resizeParentMax=0;resizeLast=0;collapsible=1;marginBottom=0;" parent="Wk-cKhRexR9t8VBScbrx-1" vertex="1">
                    <mxGeometry x="254" y="62" width="160" height="182" as="geometry"/>
                </mxCell>
                <mxCell id="PzXle0SbXXrDbyuc-Smm-1" value="+ id int" style="text;strokeColor=none;fillColor=none;align=left;verticalAlign=top;spacingLeft=4;spacingRight=4;overflow=hidden;rotatable=0;points=[[0,0.5],[1,0.5]];portConstraint=eastwest;" parent="PzXle0SbXXrDbyuc-Smm-0" vertex="1">
                    <mxGeometry y="26" width="160" height="26" as="geometry"/>
                </mxCell>
                <mxCell id="PzXle0SbXXrDbyuc-Smm-2" value="+f_name varchar (30)" style="text;strokeColor=none;fillColor=none;align=left;verticalAlign=top;spacingLeft=4;spacingRight=4;overflow=hidden;rotatable=0;points=[[0,0.5],[1,0.5]];portConstraint=eastwest;" parent="PzXle0SbXXrDbyuc-Smm-0" vertex="1">
                    <mxGeometry y="52" width="160" height="26" as="geometry"/>
                </mxCell>
                <mxCell id="PzXle0SbXXrDbyuc-Smm-3" value="+l_name varchar (30)" style="text;strokeColor=none;fillColor=none;align=left;verticalAlign=top;spacingLeft=4;spacingRight=4;overflow=hidden;rotatable=0;points=[[0,0.5],[1,0.5]];portConstraint=eastwest;" parent="PzXle0SbXXrDbyuc-Smm-0" vertex="1">
                    <mxGeometry y="78" width="160" height="26" as="geometry"/>
                </mxCell>
                <mxCell id="PzXle0SbXXrDbyuc-Smm-4" value="+ username varchar (30)" style="text;strokeColor=none;fillColor=none;align=left;verticalAlign=top;spacingLeft=4;spacingRight=4;overflow=hidden;rotatable=0;points=[[0,0.5],[1,0.5]];portConstraint=eastwest;" parent="PzXle0SbXXrDbyuc-Smm-0" vertex="1">
                    <mxGeometry y="104" width="160" height="26" as="geometry"/>
                </mxCell>
                <mxCell id="PzXle0SbXXrDbyuc-Smm-5" value="+ email varchar (30)" style="text;strokeColor=none;fillColor=none;align=left;verticalAlign=top;spacingLeft=4;spacingRight=4;overflow=hidden;rotatable=0;points=[[0,0.5],[1,0.5]];portConstraint=eastwest;" parent="PzXle0SbXXrDbyuc-Smm-0" vertex="1">
                    <mxGeometry y="130" width="160" height="26" as="geometry"/>
                </mxCell>
                <mxCell id="PzXle0SbXXrDbyuc-Smm-6" value="+ password varchar (30)" style="text;strokeColor=none;fillColor=none;align=left;verticalAlign=top;spacingLeft=4;spacingRight=4;overflow=hidden;rotatable=0;points=[[0,0.5],[1,0.5]];portConstraint=eastwest;" parent="PzXle0SbXXrDbyuc-Smm-0" vertex="1">
                    <mxGeometry y="156" width="160" height="26" as="geometry"/>
                </mxCell>
                <mxCell id="PzXle0SbXXrDbyuc-Smm-7" value="payment" style="swimlane;fontStyle=0;childLayout=stackLayout;horizontal=1;startSize=26;fillColor=none;horizontalStack=0;resizeParent=1;resizeParentMax=0;resizeLast=0;collapsible=1;marginBottom=0;" parent="Wk-cKhRexR9t8VBScbrx-1" vertex="1">
                    <mxGeometry x="580" y="62" width="150" height="156" as="geometry"/>
                </mxCell>
                <mxCell id="PzXle0SbXXrDbyuc-Smm-8" value="+ id int" style="text;strokeColor=none;fillColor=none;align=left;verticalAlign=top;spacingLeft=4;spacingRight=4;overflow=hidden;rotatable=0;points=[[0,0.5],[1,0.5]];portConstraint=eastwest;" parent="PzXle0SbXXrDbyuc-Smm-7" vertex="1">
                    <mxGeometry y="26" width="150" height="26" as="geometry"/>
                </mxCell>
                <mxCell id="PzXle0SbXXrDbyuc-Smm-9" value="+ creditcard varchar (30)" style="text;strokeColor=none;fillColor=none;align=left;verticalAlign=top;spacingLeft=4;spacingRight=4;overflow=hidden;rotatable=0;points=[[0,0.5],[1,0.5]];portConstraint=eastwest;" parent="PzXle0SbXXrDbyuc-Smm-7" vertex="1">
                    <mxGeometry y="52" width="150" height="26" as="geometry"/>
                </mxCell>
                <mxCell id="PzXle0SbXXrDbyuc-Smm-10" value="+ paypal varchar " style="text;strokeColor=none;fillColor=none;align=left;verticalAlign=top;spacingLeft=4;spacingRight=4;overflow=hidden;rotatable=0;points=[[0,0.5],[1,0.5]];portConstraint=eastwest;" parent="PzXle0SbXXrDbyuc-Smm-7" vertex="1">
                    <mxGeometry y="78" width="150" height="26" as="geometry"/>
                </mxCell>
                <mxCell id="PzXle0SbXXrDbyuc-Smm-11" value="+ klarna varchar" style="text;strokeColor=none;fillColor=none;align=left;verticalAlign=top;spacingLeft=4;spacingRight=4;overflow=hidden;rotatable=0;points=[[0,0.5],[1,0.5]];portConstraint=eastwest;" parent="PzXle0SbXXrDbyuc-Smm-7" vertex="1">
                    <mxGeometry y="104" width="150" height="26" as="geometry"/>
                </mxCell>
                <mxCell id="PzXle0SbXXrDbyuc-Smm-69" value="+fk_user" style="text;strokeColor=none;fillColor=none;align=left;verticalAlign=top;spacingLeft=4;spacingRight=4;overflow=hidden;rotatable=0;points=[[0,0.5],[1,0.5]];portConstraint=eastwest;" parent="PzXle0SbXXrDbyuc-Smm-7" vertex="1">
                    <mxGeometry y="130" width="150" height="26" as="geometry"/>
                </mxCell>
                <mxCell id="PzXle0SbXXrDbyuc-Smm-12" value="products" style="swimlane;fontStyle=0;childLayout=stackLayout;horizontal=1;startSize=26;fillColor=none;horizontalStack=0;resizeParent=1;resizeParentMax=0;resizeLast=0;collapsible=1;marginBottom=0;" parent="Wk-cKhRexR9t8VBScbrx-1" vertex="1">
                    <mxGeometry x="230" y="340" width="170" height="182" as="geometry"/>
                </mxCell>
                <mxCell id="PzXle0SbXXrDbyuc-Smm-13" value="+id int" style="text;strokeColor=none;fillColor=none;align=left;verticalAlign=top;spacingLeft=4;spacingRight=4;overflow=hidden;rotatable=0;points=[[0,0.5],[1,0.5]];portConstraint=eastwest;" parent="PzXle0SbXXrDbyuc-Smm-12" vertex="1">
                    <mxGeometry y="26" width="170" height="26" as="geometry"/>
                </mxCell>
                <mxCell id="PzXle0SbXXrDbyuc-Smm-14" value="+ name varchar (30)" style="text;strokeColor=none;fillColor=none;align=left;verticalAlign=top;spacingLeft=4;spacingRight=4;overflow=hidden;rotatable=0;points=[[0,0.5],[1,0.5]];portConstraint=eastwest;" parent="PzXle0SbXXrDbyuc-Smm-12" vertex="1">
                    <mxGeometry y="52" width="170" height="26" as="geometry"/>
                </mxCell>
                <mxCell id="PzXle0SbXXrDbyuc-Smm-15" value="+ model number varchar (30)" style="text;strokeColor=none;fillColor=none;align=left;verticalAlign=top;spacingLeft=4;spacingRight=4;overflow=hidden;rotatable=0;points=[[0,0.5],[1,0.5]];portConstraint=eastwest;" parent="PzXle0SbXXrDbyuc-Smm-12" vertex="1">
                    <mxGeometry y="78" width="170" height="26" as="geometry"/>
                </mxCell>
                <mxCell id="PzXle0SbXXrDbyuc-Smm-16" value="+ price float" style="text;strokeColor=none;fillColor=none;align=left;verticalAlign=top;spacingLeft=4;spacingRight=4;overflow=hidden;rotatable=0;points=[[0,0.5],[1,0.5]];portConstraint=eastwest;" parent="PzXle0SbXXrDbyuc-Smm-12" vertex="1">
                    <mxGeometry y="104" width="170" height="26" as="geometry"/>
                </mxCell>
                <mxCell id="PzXle0SbXXrDbyuc-Smm-17" value="+ color varchar (30)&#10;" style="text;strokeColor=none;fillColor=none;align=left;verticalAlign=top;spacingLeft=4;spacingRight=4;overflow=hidden;rotatable=0;points=[[0,0.5],[1,0.5]];portConstraint=eastwest;" parent="PzXle0SbXXrDbyuc-Smm-12" vertex="1">
                    <mxGeometry y="130" width="170" height="26" as="geometry"/>
                </mxCell>
                <mxCell id="PzXle0SbXXrDbyuc-Smm-18" value="+ fk_companies&#10;" style="text;strokeColor=none;fillColor=none;align=left;verticalAlign=top;spacingLeft=4;spacingRight=4;overflow=hidden;rotatable=0;points=[[0,0.5],[1,0.5]];portConstraint=eastwest;" parent="PzXle0SbXXrDbyuc-Smm-12" vertex="1">
                    <mxGeometry y="156" width="170" height="26" as="geometry"/>
                </mxCell>
                <mxCell id="PzXle0SbXXrDbyuc-Smm-19" value="adress" style="swimlane;fontStyle=0;childLayout=stackLayout;horizontal=1;startSize=26;fillColor=none;horizontalStack=0;resizeParent=1;resizeParentMax=0;resizeLast=0;collapsible=1;marginBottom=0;" parent="Wk-cKhRexR9t8VBScbrx-1" vertex="1">
                    <mxGeometry x="-40" y="340" width="160" height="156" as="geometry"/>
                </mxCell>
                <mxCell id="PzXle0SbXXrDbyuc-Smm-20" value="+ id int" style="text;strokeColor=none;fillColor=none;align=left;verticalAlign=top;spacingLeft=4;spacingRight=4;overflow=hidden;rotatable=0;points=[[0,0.5],[1,0.5]];portConstraint=eastwest;" parent="PzXle0SbXXrDbyuc-Smm-19" vertex="1">
                    <mxGeometry y="26" width="160" height="26" as="geometry"/>
                </mxCell>
                <mxCell id="PzXle0SbXXrDbyuc-Smm-21" value="+ streetname varchar (30)" style="text;strokeColor=none;fillColor=none;align=left;verticalAlign=top;spacingLeft=4;spacingRight=4;overflow=hidden;rotatable=0;points=[[0,0.5],[1,0.5]];portConstraint=eastwest;" parent="PzXle0SbXXrDbyuc-Smm-19" vertex="1">
                    <mxGeometry y="52" width="160" height="26" as="geometry"/>
                </mxCell>
                <mxCell id="PzXle0SbXXrDbyuc-Smm-22" value="+postal code varchar (10)&#10;" style="text;strokeColor=none;fillColor=none;align=left;verticalAlign=top;spacingLeft=4;spacingRight=4;overflow=hidden;rotatable=0;points=[[0,0.5],[1,0.5]];portConstraint=eastwest;" parent="PzXle0SbXXrDbyuc-Smm-19" vertex="1">
                    <mxGeometry y="78" width="160" height="26" as="geometry"/>
                </mxCell>
                <mxCell id="PzXle0SbXXrDbyuc-Smm-23" value="+city varchar (30) " style="text;strokeColor=none;fillColor=none;align=left;verticalAlign=top;spacingLeft=4;spacingRight=4;overflow=hidden;rotatable=0;points=[[0,0.5],[1,0.5]];portConstraint=eastwest;" parent="PzXle0SbXXrDbyuc-Smm-19" vertex="1">
                    <mxGeometry y="104" width="160" height="26" as="geometry"/>
                </mxCell>
                <mxCell id="PzXle0SbXXrDbyuc-Smm-24" value="+ country varchar (30) " style="text;strokeColor=none;fillColor=none;align=left;verticalAlign=top;spacingLeft=4;spacingRight=4;overflow=hidden;rotatable=0;points=[[0,0.5],[1,0.5]];portConstraint=eastwest;" parent="PzXle0SbXXrDbyuc-Smm-19" vertex="1">
                    <mxGeometry y="130" width="160" height="26" as="geometry"/>
                </mxCell>
                <mxCell id="PzXle0SbXXrDbyuc-Smm-26" value="product type" style="swimlane;fontStyle=0;childLayout=stackLayout;horizontal=1;startSize=26;fillColor=none;horizontalStack=0;resizeParent=1;resizeParentMax=0;resizeLast=0;collapsible=1;marginBottom=0;" parent="Wk-cKhRexR9t8VBScbrx-1" vertex="1">
                    <mxGeometry x="530" y="340" width="170" height="104" as="geometry"/>
                </mxCell>
                <mxCell id="PzXle0SbXXrDbyuc-Smm-27" value="+ id int " style="text;strokeColor=none;fillColor=none;align=left;verticalAlign=top;spacingLeft=4;spacingRight=4;overflow=hidden;rotatable=0;points=[[0,0.5],[1,0.5]];portConstraint=eastwest;" parent="PzXle0SbXXrDbyuc-Smm-26" vertex="1">
                    <mxGeometry y="26" width="170" height="26" as="geometry"/>
                </mxCell>
                <mxCell id="PzXle0SbXXrDbyuc-Smm-28" value="+ fk_products" style="text;strokeColor=none;fillColor=none;align=left;verticalAlign=top;spacingLeft=4;spacingRight=4;overflow=hidden;rotatable=0;points=[[0,0.5],[1,0.5]];portConstraint=eastwest;" parent="PzXle0SbXXrDbyuc-Smm-26" vertex="1">
                    <mxGeometry y="52" width="170" height="26" as="geometry"/>
                </mxCell>
                <mxCell id="PzXle0SbXXrDbyuc-Smm-29" value="+ type varchar (30)" style="text;strokeColor=none;fillColor=none;align=left;verticalAlign=top;spacingLeft=4;spacingRight=4;overflow=hidden;rotatable=0;points=[[0,0.5],[1,0.5]];portConstraint=eastwest;" parent="PzXle0SbXXrDbyuc-Smm-26" vertex="1">
                    <mxGeometry y="78" width="170" height="26" as="geometry"/>
                </mxCell>
                <mxCell id="PzXle0SbXXrDbyuc-Smm-30" value="companies" style="swimlane;fontStyle=0;childLayout=stackLayout;horizontal=1;startSize=26;fillColor=none;horizontalStack=0;resizeParent=1;resizeParentMax=0;resizeLast=0;collapsible=1;marginBottom=0;" parent="Wk-cKhRexR9t8VBScbrx-1" vertex="1">
                    <mxGeometry x="750" y="340" width="140" height="78" as="geometry"/>
                </mxCell>
                <mxCell id="PzXle0SbXXrDbyuc-Smm-31" value="+ id int" style="text;strokeColor=none;fillColor=none;align=left;verticalAlign=top;spacingLeft=4;spacingRight=4;overflow=hidden;rotatable=0;points=[[0,0.5],[1,0.5]];portConstraint=eastwest;" parent="PzXle0SbXXrDbyuc-Smm-30" vertex="1">
                    <mxGeometry y="26" width="140" height="26" as="geometry"/>
                </mxCell>
                <mxCell id="PzXle0SbXXrDbyuc-Smm-32" value="+ name varchar (30)" style="text;strokeColor=none;fillColor=none;align=left;verticalAlign=top;spacingLeft=4;spacingRight=4;overflow=hidden;rotatable=0;points=[[0,0.5],[1,0.5]];portConstraint=eastwest;" parent="PzXle0SbXXrDbyuc-Smm-30" vertex="1">
                    <mxGeometry y="52" width="140" height="26" as="geometry"/>
                </mxCell>
                <mxCell id="PzXle0SbXXrDbyuc-Smm-33" value="user_adresses" style="swimlane;fontStyle=0;childLayout=stackLayout;horizontal=1;startSize=26;fillColor=none;horizontalStack=0;resizeParent=1;resizeParentMax=0;resizeLast=0;collapsible=1;marginBottom=0;" parent="Wk-cKhRexR9t8VBScbrx-1" vertex="1">
                    <mxGeometry x="-40" y="62" width="160" height="104" as="geometry"/>
                </mxCell>
                <mxCell id="PzXle0SbXXrDbyuc-Smm-34" value="+id int" style="text;strokeColor=none;fillColor=none;align=left;verticalAlign=top;spacingLeft=4;spacingRight=4;overflow=hidden;rotatable=0;points=[[0,0.5],[1,0.5]];portConstraint=eastwest;" parent="PzXle0SbXXrDbyuc-Smm-33" vertex="1">
                    <mxGeometry y="26" width="160" height="26" as="geometry"/>
                </mxCell>
                <mxCell id="PzXle0SbXXrDbyuc-Smm-35" value="+fk_user" style="text;strokeColor=none;fillColor=none;align=left;verticalAlign=top;spacingLeft=4;spacingRight=4;overflow=hidden;rotatable=0;points=[[0,0.5],[1,0.5]];portConstraint=eastwest;" parent="PzXle0SbXXrDbyuc-Smm-33" vertex="1">
                    <mxGeometry y="52" width="160" height="26" as="geometry"/>
                </mxCell>
                <mxCell id="PzXle0SbXXrDbyuc-Smm-36" value="+fk_adress&#10;" style="text;strokeColor=none;fillColor=none;align=left;verticalAlign=top;spacingLeft=4;spacingRight=4;overflow=hidden;rotatable=0;points=[[0,0.5],[1,0.5]];portConstraint=eastwest;" parent="PzXle0SbXXrDbyuc-Smm-33" vertex="1">
                    <mxGeometry y="78" width="160" height="26" as="geometry"/>
                </mxCell>
                <mxCell id="PzXle0SbXXrDbyuc-Smm-37" value="company_adresses" style="swimlane;fontStyle=0;childLayout=stackLayout;horizontal=1;startSize=26;fillColor=none;horizontalStack=0;resizeParent=1;resizeParentMax=0;resizeLast=0;collapsible=1;marginBottom=0;" parent="Wk-cKhRexR9t8VBScbrx-1" vertex="1">
                    <mxGeometry x="770" y="483" width="140" height="104" as="geometry"/>
                </mxCell>
                <mxCell id="PzXle0SbXXrDbyuc-Smm-38" value="+ id int" style="text;strokeColor=none;fillColor=none;align=left;verticalAlign=top;spacingLeft=4;spacingRight=4;overflow=hidden;rotatable=0;points=[[0,0.5],[1,0.5]];portConstraint=eastwest;" parent="PzXle0SbXXrDbyuc-Smm-37" vertex="1">
                    <mxGeometry y="26" width="140" height="26" as="geometry"/>
                </mxCell>
                <mxCell id="PzXle0SbXXrDbyuc-Smm-39" value="+ fk_compies" style="text;strokeColor=none;fillColor=none;align=left;verticalAlign=top;spacingLeft=4;spacingRight=4;overflow=hidden;rotatable=0;points=[[0,0.5],[1,0.5]];portConstraint=eastwest;" parent="PzXle0SbXXrDbyuc-Smm-37" vertex="1">
                    <mxGeometry y="52" width="140" height="26" as="geometry"/>
                </mxCell>
                <mxCell id="PzXle0SbXXrDbyuc-Smm-40" value="+ fk_adresses" style="text;strokeColor=none;fillColor=none;align=left;verticalAlign=top;spacingLeft=4;spacingRight=4;overflow=hidden;rotatable=0;points=[[0,0.5],[1,0.5]];portConstraint=eastwest;" parent="PzXle0SbXXrDbyuc-Smm-37" vertex="1">
                    <mxGeometry y="78" width="140" height="26" as="geometry"/>
                </mxCell>
                <mxCell id="PzXle0SbXXrDbyuc-Smm-41" value="carts" style="swimlane;fontStyle=0;childLayout=stackLayout;horizontal=1;startSize=26;fillColor=none;horizontalStack=0;resizeParent=1;resizeParentMax=0;resizeLast=0;collapsible=1;marginBottom=0;" parent="Wk-cKhRexR9t8VBScbrx-1" vertex="1">
                    <mxGeometry x="740" y="630" width="140" height="78" as="geometry"/>
                </mxCell>
                <mxCell id="PzXle0SbXXrDbyuc-Smm-42" value="+id int" style="text;strokeColor=none;fillColor=none;align=left;verticalAlign=top;spacingLeft=4;spacingRight=4;overflow=hidden;rotatable=0;points=[[0,0.5],[1,0.5]];portConstraint=eastwest;" parent="PzXle0SbXXrDbyuc-Smm-41" vertex="1">
                    <mxGeometry y="26" width="140" height="26" as="geometry"/>
                </mxCell>
                <mxCell id="PzXle0SbXXrDbyuc-Smm-43" value="+fk_user" style="text;strokeColor=none;fillColor=none;align=left;verticalAlign=top;spacingLeft=4;spacingRight=4;overflow=hidden;rotatable=0;points=[[0,0.5],[1,0.5]];portConstraint=eastwest;" parent="PzXle0SbXXrDbyuc-Smm-41" vertex="1">
                    <mxGeometry y="52" width="140" height="26" as="geometry"/>
                </mxCell>
                <mxCell id="PzXle0SbXXrDbyuc-Smm-44" value="cart_products" style="swimlane;fontStyle=0;childLayout=stackLayout;horizontal=1;startSize=26;fillColor=none;horizontalStack=0;resizeParent=1;resizeParentMax=0;resizeLast=0;collapsible=1;marginBottom=0;" parent="Wk-cKhRexR9t8VBScbrx-1" vertex="1">
                    <mxGeometry x="510" y="700" width="140" height="130" as="geometry"/>
                </mxCell>
                <mxCell id="PzXle0SbXXrDbyuc-Smm-45" value="+ id int " style="text;strokeColor=none;fillColor=none;align=left;verticalAlign=top;spacingLeft=4;spacingRight=4;overflow=hidden;rotatable=0;points=[[0,0.5],[1,0.5]];portConstraint=eastwest;" parent="PzXle0SbXXrDbyuc-Smm-44" vertex="1">
                    <mxGeometry y="26" width="140" height="26" as="geometry"/>
                </mxCell>
                <mxCell id="PzXle0SbXXrDbyuc-Smm-46" value="+ fk_carts" style="text;strokeColor=none;fillColor=none;align=left;verticalAlign=top;spacingLeft=4;spacingRight=4;overflow=hidden;rotatable=0;points=[[0,0.5],[1,0.5]];portConstraint=eastwest;" parent="PzXle0SbXXrDbyuc-Smm-44" vertex="1">
                    <mxGeometry y="52" width="140" height="26" as="geometry"/>
                </mxCell>
                <mxCell id="PzXle0SbXXrDbyuc-Smm-47" value="+ fk_products" style="text;strokeColor=none;fillColor=none;align=left;verticalAlign=top;spacingLeft=4;spacingRight=4;overflow=hidden;rotatable=0;points=[[0,0.5],[1,0.5]];portConstraint=eastwest;" parent="PzXle0SbXXrDbyuc-Smm-44" vertex="1">
                    <mxGeometry y="78" width="140" height="26" as="geometry"/>
                </mxCell>
                <mxCell id="PzXle0SbXXrDbyuc-Smm-48" value="+ quantity int" style="text;strokeColor=none;fillColor=none;align=left;verticalAlign=top;spacingLeft=4;spacingRight=4;overflow=hidden;rotatable=0;points=[[0,0.5],[1,0.5]];portConstraint=eastwest;" parent="PzXle0SbXXrDbyuc-Smm-44" vertex="1">
                    <mxGeometry y="104" width="140" height="26" as="geometry"/>
                </mxCell>
                <mxCell id="PzXle0SbXXrDbyuc-Smm-49" value="orders" style="swimlane;fontStyle=0;childLayout=stackLayout;horizontal=1;startSize=26;fillColor=none;horizontalStack=0;resizeParent=1;resizeParentMax=0;resizeLast=0;collapsible=1;marginBottom=0;" parent="Wk-cKhRexR9t8VBScbrx-1" vertex="1">
                    <mxGeometry x="-10" y="700" width="140" height="130" as="geometry"/>
                </mxCell>
                <mxCell id="PzXle0SbXXrDbyuc-Smm-50" value="+id int" style="text;strokeColor=none;fillColor=none;align=left;verticalAlign=top;spacingLeft=4;spacingRight=4;overflow=hidden;rotatable=0;points=[[0,0.5],[1,0.5]];portConstraint=eastwest;" parent="PzXle0SbXXrDbyuc-Smm-49" vertex="1">
                    <mxGeometry y="26" width="140" height="26" as="geometry"/>
                </mxCell>
                <mxCell id="PzXle0SbXXrDbyuc-Smm-51" value="+ fk_carts" style="text;strokeColor=none;fillColor=none;align=left;verticalAlign=top;spacingLeft=4;spacingRight=4;overflow=hidden;rotatable=0;points=[[0,0.5],[1,0.5]];portConstraint=eastwest;" parent="PzXle0SbXXrDbyuc-Smm-49" vertex="1">
                    <mxGeometry y="52" width="140" height="26" as="geometry"/>
                </mxCell>
                <mxCell id="PzXle0SbXXrDbyuc-Smm-79" value="+ fk_user_adresses" style="text;strokeColor=none;fillColor=none;align=left;verticalAlign=top;spacingLeft=4;spacingRight=4;overflow=hidden;rotatable=0;points=[[0,0.5],[1,0.5]];portConstraint=eastwest;" parent="PzXle0SbXXrDbyuc-Smm-49" vertex="1">
                    <mxGeometry y="78" width="140" height="26" as="geometry"/>
                </mxCell>
                <mxCell id="PzXle0SbXXrDbyuc-Smm-53" value="+fk_payments" style="text;strokeColor=none;fillColor=none;align=left;verticalAlign=top;spacingLeft=4;spacingRight=4;overflow=hidden;rotatable=0;points=[[0,0.5],[1,0.5]];portConstraint=eastwest;" parent="PzXle0SbXXrDbyuc-Smm-49" vertex="1">
                    <mxGeometry y="104" width="140" height="26" as="geometry"/>
                </mxCell>
                <mxCell id="PzXle0SbXXrDbyuc-Smm-54" value="order_delivery_companies" style="swimlane;fontStyle=0;childLayout=stackLayout;horizontal=1;startSize=26;fillColor=none;horizontalStack=0;resizeParent=1;resizeParentMax=0;resizeLast=0;collapsible=1;marginBottom=0;" parent="Wk-cKhRexR9t8VBScbrx-1" vertex="1">
                    <mxGeometry x="210" y="700" width="150" height="104" as="geometry"/>
                </mxCell>
                <mxCell id="PzXle0SbXXrDbyuc-Smm-55" value="+id int" style="text;strokeColor=none;fillColor=none;align=left;verticalAlign=top;spacingLeft=4;spacingRight=4;overflow=hidden;rotatable=0;points=[[0,0.5],[1,0.5]];portConstraint=eastwest;" parent="PzXle0SbXXrDbyuc-Smm-54" vertex="1">
                    <mxGeometry y="26" width="150" height="26" as="geometry"/>
                </mxCell>
                <mxCell id="PzXle0SbXXrDbyuc-Smm-56" value="+fk_orders" style="text;strokeColor=none;fillColor=none;align=left;verticalAlign=top;spacingLeft=4;spacingRight=4;overflow=hidden;rotatable=0;points=[[0,0.5],[1,0.5]];portConstraint=eastwest;" parent="PzXle0SbXXrDbyuc-Smm-54" vertex="1">
                    <mxGeometry y="52" width="150" height="26" as="geometry"/>
                </mxCell>
                <mxCell id="PzXle0SbXXrDbyuc-Smm-57" value="+fk_companies" style="text;strokeColor=none;fillColor=none;align=left;verticalAlign=top;spacingLeft=4;spacingRight=4;overflow=hidden;rotatable=0;points=[[0,0.5],[1,0.5]];portConstraint=eastwest;" parent="PzXle0SbXXrDbyuc-Smm-54" vertex="1">
                    <mxGeometry y="78" width="150" height="26" as="geometry"/>
                </mxCell>
                <mxCell id="PzXle0SbXXrDbyuc-Smm-60" style="edgeStyle=orthogonalEdgeStyle;html=1;exitX=0;exitY=0.5;exitDx=0;exitDy=0;entryX=1;entryY=0.5;entryDx=0;entryDy=0;startArrow=none;startFill=0;endArrow=ERzeroToMany;endFill=0;" parent="Wk-cKhRexR9t8VBScbrx-1" source="PzXle0SbXXrDbyuc-Smm-1" target="PzXle0SbXXrDbyuc-Smm-36" edge="1">
                    <mxGeometry relative="1" as="geometry"/>
                </mxCell>
                <mxCell id="PzXle0SbXXrDbyuc-Smm-63" style="edgeStyle=orthogonalEdgeStyle;html=1;exitX=0;exitY=0.5;exitDx=0;exitDy=0;entryX=0;entryY=0.5;entryDx=0;entryDy=0;startArrow=none;startFill=0;endArrow=ERzeroToMany;endFill=0;" parent="Wk-cKhRexR9t8VBScbrx-1" source="PzXle0SbXXrDbyuc-Smm-20" target="PzXle0SbXXrDbyuc-Smm-36" edge="1">
                    <mxGeometry relative="1" as="geometry">
                        <Array as="points">
                            <mxPoint x="-70" y="379"/>
                            <mxPoint x="-70" y="153"/>
                        </Array>
                    </mxGeometry>
                </mxCell>
                <mxCell id="PzXle0SbXXrDbyuc-Smm-64" style="edgeStyle=orthogonalEdgeStyle;html=1;exitX=1;exitY=0.5;exitDx=0;exitDy=0;entryX=1;entryY=0.5;entryDx=0;entryDy=0;startArrow=none;startFill=0;endArrow=ERzeroToMany;endFill=0;" parent="Wk-cKhRexR9t8VBScbrx-1" source="PzXle0SbXXrDbyuc-Smm-31" target="PzXle0SbXXrDbyuc-Smm-39" edge="1">
                    <mxGeometry relative="1" as="geometry">
                        <Array as="points">
                            <mxPoint x="950" y="379"/>
                            <mxPoint x="950" y="548"/>
                        </Array>
                    </mxGeometry>
                </mxCell>
                <mxCell id="PzXle0SbXXrDbyuc-Smm-65" style="edgeStyle=orthogonalEdgeStyle;html=1;exitX=1;exitY=0.5;exitDx=0;exitDy=0;entryX=0;entryY=0.5;entryDx=0;entryDy=0;startArrow=none;startFill=0;endArrow=ERzeroToMany;endFill=0;" parent="Wk-cKhRexR9t8VBScbrx-1" source="PzXle0SbXXrDbyuc-Smm-20" target="PzXle0SbXXrDbyuc-Smm-40" edge="1">
                    <mxGeometry relative="1" as="geometry">
                        <Array as="points">
                            <mxPoint x="160" y="379"/>
                            <mxPoint x="160" y="574"/>
                        </Array>
                    </mxGeometry>
                </mxCell>
                <mxCell id="PzXle0SbXXrDbyuc-Smm-66" style="edgeStyle=orthogonalEdgeStyle;html=1;exitX=0;exitY=0.5;exitDx=0;exitDy=0;entryX=1;entryY=0.5;entryDx=0;entryDy=0;startArrow=none;startFill=0;endArrow=ERzeroToMany;endFill=0;" parent="Wk-cKhRexR9t8VBScbrx-1" source="PzXle0SbXXrDbyuc-Smm-31" target="PzXle0SbXXrDbyuc-Smm-18" edge="1">
                    <mxGeometry relative="1" as="geometry">
                        <Array as="points">
                            <mxPoint x="720" y="379"/>
                            <mxPoint x="720" y="509"/>
                        </Array>
                    </mxGeometry>
                </mxCell>
                <mxCell id="PzXle0SbXXrDbyuc-Smm-67" style="edgeStyle=orthogonalEdgeStyle;html=1;exitX=1;exitY=0.5;exitDx=0;exitDy=0;entryX=-0.024;entryY=0.769;entryDx=0;entryDy=0;entryPerimeter=0;startArrow=none;startFill=0;endArrow=ERoneToMany;endFill=0;" parent="Wk-cKhRexR9t8VBScbrx-1" source="PzXle0SbXXrDbyuc-Smm-13" target="PzXle0SbXXrDbyuc-Smm-28" edge="1">
                    <mxGeometry relative="1" as="geometry"/>
                </mxCell>
                <mxCell id="PzXle0SbXXrDbyuc-Smm-70" style="edgeStyle=orthogonalEdgeStyle;html=1;exitX=1;exitY=0.5;exitDx=0;exitDy=0;entryX=0;entryY=0.5;entryDx=0;entryDy=0;startArrow=none;startFill=0;endArrow=ERzeroToMany;endFill=0;" parent="Wk-cKhRexR9t8VBScbrx-1" source="PzXle0SbXXrDbyuc-Smm-1" target="PzXle0SbXXrDbyuc-Smm-69" edge="1">
                    <mxGeometry relative="1" as="geometry"/>
                </mxCell>
                <mxCell id="PzXle0SbXXrDbyuc-Smm-71" style="edgeStyle=orthogonalEdgeStyle;html=1;exitX=1;exitY=0.5;exitDx=0;exitDy=0;entryX=0;entryY=0.5;entryDx=0;entryDy=0;startArrow=none;startFill=0;endArrow=ERzeroToMany;endFill=0;" parent="Wk-cKhRexR9t8VBScbrx-1" source="PzXle0SbXXrDbyuc-Smm-1" target="PzXle0SbXXrDbyuc-Smm-42" edge="1">
                    <mxGeometry relative="1" as="geometry">
                        <Array as="points">
                            <mxPoint x="450" y="101"/>
                            <mxPoint x="450" y="669"/>
                        </Array>
                    </mxGeometry>
                </mxCell>
                <mxCell id="PzXle0SbXXrDbyuc-Smm-72" style="edgeStyle=orthogonalEdgeStyle;html=1;exitX=0;exitY=0.5;exitDx=0;exitDy=0;entryX=1;entryY=0.5;entryDx=0;entryDy=0;startArrow=none;startFill=0;endArrow=ERzeroToMany;endFill=0;" parent="Wk-cKhRexR9t8VBScbrx-1" source="PzXle0SbXXrDbyuc-Smm-42" target="PzXle0SbXXrDbyuc-Smm-46" edge="1">
                    <mxGeometry relative="1" as="geometry"/>
                </mxCell>
                <mxCell id="PzXle0SbXXrDbyuc-Smm-73" style="edgeStyle=orthogonalEdgeStyle;html=1;exitX=1;exitY=0.5;exitDx=0;exitDy=0;entryX=0;entryY=0.5;entryDx=0;entryDy=0;startArrow=none;startFill=0;endArrow=ERzeroToMany;endFill=0;" parent="Wk-cKhRexR9t8VBScbrx-1" source="PzXle0SbXXrDbyuc-Smm-13" target="PzXle0SbXXrDbyuc-Smm-47" edge="1">
                    <mxGeometry relative="1" as="geometry">
                        <Array as="points">
                            <mxPoint x="430" y="379"/>
                            <mxPoint x="430" y="791"/>
                        </Array>
                    </mxGeometry>
                </mxCell>
                <mxCell id="PzXle0SbXXrDbyuc-Smm-74" style="edgeStyle=orthogonalEdgeStyle;html=1;exitX=0;exitY=0.5;exitDx=0;exitDy=0;entryX=0;entryY=0.769;entryDx=0;entryDy=0;entryPerimeter=0;startArrow=none;startFill=0;endArrow=ERzeroToMany;endFill=0;" parent="Wk-cKhRexR9t8VBScbrx-1" source="PzXle0SbXXrDbyuc-Smm-42" target="PzXle0SbXXrDbyuc-Smm-51" edge="1">
                    <mxGeometry relative="1" as="geometry">
                        <Array as="points">
                            <mxPoint x="740" y="650"/>
                            <mxPoint x="-60" y="650"/>
                            <mxPoint x="-60" y="772"/>
                        </Array>
                    </mxGeometry>
                </mxCell>
                <mxCell id="PzXle0SbXXrDbyuc-Smm-75" style="edgeStyle=orthogonalEdgeStyle;html=1;exitX=0;exitY=0.5;exitDx=0;exitDy=0;entryX=0;entryY=0.5;entryDx=0;entryDy=0;startArrow=none;startFill=0;endArrow=ERzeroToMany;endFill=0;" parent="Wk-cKhRexR9t8VBScbrx-1" source="PzXle0SbXXrDbyuc-Smm-34" target="PzXle0SbXXrDbyuc-Smm-53" edge="1">
                    <mxGeometry relative="1" as="geometry">
                        <Array as="points">
                            <mxPoint x="-110" y="101"/>
                            <mxPoint x="-110" y="791"/>
                        </Array>
                    </mxGeometry>
                </mxCell>
                <mxCell id="PzXle0SbXXrDbyuc-Smm-80" style="edgeStyle=orthogonalEdgeStyle;html=1;exitX=0;exitY=0.5;exitDx=0;exitDy=0;entryX=0;entryY=0.5;entryDx=0;entryDy=0;startArrow=none;startFill=0;endArrow=ERzeroToMany;endFill=0;" parent="Wk-cKhRexR9t8VBScbrx-1" source="PzXle0SbXXrDbyuc-Smm-8" target="PzXle0SbXXrDbyuc-Smm-53" edge="1">
                    <mxGeometry relative="1" as="geometry">
                        <Array as="points">
                            <mxPoint x="540" y="101"/>
                            <mxPoint x="540" y="30"/>
                            <mxPoint x="-140" y="30"/>
                            <mxPoint x="-140" y="817"/>
                        </Array>
                    </mxGeometry>
                </mxCell>
                <mxCell id="PzXle0SbXXrDbyuc-Smm-82" style="edgeStyle=orthogonalEdgeStyle;html=1;exitX=1;exitY=0.5;exitDx=0;exitDy=0;entryX=0;entryY=0.5;entryDx=0;entryDy=0;startArrow=none;startFill=0;endArrow=ERoneToMany;endFill=0;" parent="Wk-cKhRexR9t8VBScbrx-1" source="PzXle0SbXXrDbyuc-Smm-50" target="PzXle0SbXXrDbyuc-Smm-56" edge="1">
                    <mxGeometry relative="1" as="geometry"/>
                </mxCell>
                <mxCell id="PzXle0SbXXrDbyuc-Smm-83" style="edgeStyle=orthogonalEdgeStyle;html=1;exitX=0;exitY=0.5;exitDx=0;exitDy=0;entryX=1;entryY=0.5;entryDx=0;entryDy=0;startArrow=none;startFill=0;endArrow=ERzeroToMany;endFill=0;" parent="Wk-cKhRexR9t8VBScbrx-1" source="PzXle0SbXXrDbyuc-Smm-31" target="PzXle0SbXXrDbyuc-Smm-55" edge="1">
                    <mxGeometry relative="1" as="geometry">
                        <Array as="points">
                            <mxPoint x="750" y="300"/>
                            <mxPoint x="500" y="300"/>
                            <mxPoint x="500" y="739"/>
                        </Array>
                    </mxGeometry>
                </mxCell>
            </root>
        </mxGraphModel>
    </diagram>
</mxfile>